<svg xmlns="http://www.w3.org/2000/svg" viewBox="0 0 112.7 77.95"><defs><style>.cls-1{fill:#fff;}</style></defs><g id="圖層_2" data-name="圖層 2"><g id="OBJECTS"><path class="cls-1" d="M109.38,11.5c-5,0-19.39,2.13-19.39,2.13,1.84-1.49,3.09-5,3.42-7.21a4.36,4.36,0,0,0,0-1.81,1.19,1.19,0,0,0-.4-.44h0L92.77,4l0,0-.22-.13-.11-.06-.2-.11L92,3.59l-.15-.07-.27-.13-.06,0h0C88.18,1.83,81.2-.09,77.35,0c-2.18.06-4.51,1.55-6.46,3.24C64,2.4,49.83,1.15,41,3.84,29.09,7.5,18.23,16.43,18.23,16.43S46.09,18.17,55,16.1l.3-.08c-.42.21-.87.43-1.33.64h0a72.22,72.22,0,0,1-10.14,3.69l-.16.06-.91.28-.32.1-1,.35-.33.12-1,.38-.24.1c-.29.11-.57.23-.85.36l-.27.11-1,.44-.3.15-.93.45-.26.14-.81.43-.2.11-.91.51-.27.16-.87.52-.26.16-.79.5-.23.15c-.26.16-.51.33-.75.5L31,26.6l-.79.54a2.83,2.83,0,0,1-.28.2l-.75.55-.24.18-.6.45-.26.2-.68.54-.3.24-.65.52-.29.24-.45.38-.41.35-.43.37-.34.3-.5.45-.36.33-.24.22-.61.57-.15.15a68.37,68.37,0,0,0-5.64,6l0,0-.77,1a11.13,11.13,0,0,0-.71-1.28c-2-3.06-6.16-6.42-10.2-4.14L5,35.19l0,0-.38.25-.08.07-.3.23-.11.08-.27.24-.11.09-.27.26-.1.09-.29.3L3,36.88l-.34.39h0l-.31.39a1,1,0,0,0-.08.11l-.22.3-.1.14-.19.29-.09.14-.18.3a1.09,1.09,0,0,0-.08.15,3.3,3.3,0,0,0-.18.32l-.07.13c-.07.14-.14.28-.2.42l0,0-.19.45h0c-1.2,3-1,6.32,1.64,8.39A9.49,9.49,0,0,0,12.07,50s-2.31,9.87-4,11.67-5.51,4.56-.57,6S24.83,81.3,24,77.06s-9.36-11.27-9.36-11.27c14.65-.17,23.31-16.05,23.31-16.05a26.71,26.71,0,0,0,7.58-2.21h0l.45-.19c7.74-3.28,18-9.3,26-14.22l3.37-2.05c9.57.05,30.19-.2,32.84-3.14s-7.15-4.52-17.36-5a85.92,85.92,0,0,1,13.06-4.65C114.59,15.42,114.39,11.48,109.38,11.5Z"/></g></g></svg>