<svg xmlns="http://www.w3.org/2000/svg" viewBox="0 0 144.72 192.94"><defs><style>.cls-1{fill:#9d9ec9;}.cls-2{fill:#f8f7fe;}.cls-3{fill:#001552;}.cls-4{fill:#feafab;}</style></defs><g id="圖層_2" data-name="圖層 2"><g id="OBJECTS"><path class="cls-1" d="M11.71,173.08c9-5.12,25.45-19,25.45-19s13.63,6.53,27.31-5.8S65.91,111.86,46.36,116,10.45,155.93,7.46,164.4,6.35,176.13,11.71,173.08Z"/><path class="cls-1" d="M105.23,100.78s29.31,7.31,28.29,13.74-34.19-2.71-34.19-2.71Z"/><path class="cls-2" d="M29.3,147.73l-.48-.41c-18.78-16.78.06-36.68,14.8-47.26C56.68,90.68,72.54,84.37,88.7,83.68,104.64,83,115.76,94.46,116.63,110c1.35,24.07-18.63,38.55-39.92,43C62.05,156.14,41.59,158.07,29.3,147.73Z"/><path class="cls-1" d="M29.71,112.52c-7,8.13-11.44,17.8-6.92,27.1C33.09,131.07,31.24,116.6,29.71,112.52Z"/><path class="cls-1" d="M107,89.55,81.08,90.81A48,48,0,0,0,116,105.09,27.25,27.25,0,0,0,107,89.55Z"/><path class="cls-2" d="M103.4,49c-18.49.89-32.19,21.16-24.9,39.13s46.77,17.55,53.63,1.25S129.14,47.72,103.4,49Z"/><path class="cls-3" d="M96.7,72.69c0,2-.64,3.54-1.43,3.54s-1.44-1.58-1.44-3.54.64-3.54,1.44-3.54S96.7,70.74,96.7,72.69Z"/><path class="cls-3" d="M116.94,72.69c0,2-.64,3.54-1.43,3.54s-1.44-1.58-1.44-3.54.64-3.54,1.44-3.54S116.94,70.74,116.94,72.69Z"/><path class="cls-4" d="M105.38,85.2c-3.08,0-6.65-4.43-3.62-6.6s7.9-1.1,8.94,1.17S108.46,85.2,105.38,85.2Z"/><path class="cls-4" d="M114,86.74a2.15,2.15,0,0,0-.6.52,8.37,8.37,0,0,1-.62.57,8,8,0,0,1-1.27.89,8.78,8.78,0,0,1-3,1.06,13.86,13.86,0,0,1-3.64,0,16.56,16.56,0,0,1-3.21-.62,8.93,8.93,0,0,1-3.21-1.69c-.35-.29-.85.19-.51.52a11.3,11.3,0,0,0,6.41,2.65,15.53,15.53,0,0,0,3.91.14,9.69,9.69,0,0,0,3.33-1,9.5,9.5,0,0,0,1.66-1.09c.24-.19.47-.4.69-.61a2,2,0,0,0,.61-.85A.39.39,0,0,0,114,86.74Z"/><path class="cls-4" d="M106.54,89.55c0-.22,0-.44,0-.66,0-.47,0-1-.08-1.42,0-1-.13-1.91-.24-2.85a.25.25,0,0,0-.5,0c-.06,1-.08,1.93-.07,2.9,0,.48,0,1,0,1.42a3.93,3.93,0,0,0,.13,1.46c.15.34.61.19.72-.09A1.94,1.94,0,0,0,106.54,89.55Z"/><path class="cls-4" d="M92.14,78.51A2.24,2.24,0,0,0,91,79c-.34.22-.68.45-1,.69a15.43,15.43,0,0,0-1.82,1.6.26.26,0,0,0,.37.37,14.18,14.18,0,0,1,1.85-1.42c.32-.21.66-.4,1-.59a2.64,2.64,0,0,0,1-.66A.33.33,0,0,0,92.14,78.51Z"/><path class="cls-4" d="M93.84,80.3a.33.33,0,0,0-.42-.09,18,18,0,0,0-1.64,1.27.29.29,0,0,0,0,.38.3.3,0,0,0,.38.08,18.45,18.45,0,0,0,1.68-1.22A.32.32,0,0,0,93.84,80.3Z"/><path class="cls-4" d="M119.19,80.53a2.23,2.23,0,0,0-.43-.49,4.8,4.8,0,0,0-.54-.38,5,5,0,0,0-1.15-.52c-.3-.1-.51.38-.22.52a7,7,0,0,1,1,.6l.11.08,0,0,0,0,.22.19c.17.13.34.26.52.38A.32.32,0,0,0,119.19,80.53Z"/><path class="cls-4" d="M122.48,81.18a11.52,11.52,0,0,0-1.43-1.9,13.57,13.57,0,0,0-1.84-1.56.44.44,0,0,0-.61.16.43.43,0,0,0,.16.6,9.83,9.83,0,0,1,1.81,1.27,10.39,10.39,0,0,1,1.54,1.64C122.27,81.6,122.62,81.42,122.48,81.18Z"/><path class="cls-2" d="M90.28,58.91S78.86,40,72.73,19.12s14.92-27.59,21.1-5.21a200.35,200.35,0,0,1,6.78,42.26Z"/><path class="cls-4" d="M90.56,54.38a168,168,0,0,1-10.43-30C76.48,8.63,89,3.54,92.67,20.42a190,190,0,0,1,4,31.9Z"/><path class="cls-2" d="M112.23,55.78s4.66-28.26,9.16-43.88c5-17.3,30.8-15.79,21.22,7.52C132.41,44.25,120.67,60,120.67,60Z"/><path class="cls-4" d="M116.94,50.87S119.82,30,122.6,18.52c3.08-12.75,19-11.63,13.11,5.55A161.31,161.31,0,0,1,122.16,54Z"/><path class="cls-2" d="M100.33,112.38s31,12.87,27.45,21.33-32.68-9.48-32.68-9.48Z"/><path class="cls-2" d="M26,130.59c3.56-2.63,5.74-7.13,5-13C29.82,107.71,20.7,97.2,10,100c-13.68,3.56-11.91,21.58-2.85,29.09C13.31,134.23,21,134.27,26,130.59Z"/><path class="cls-2" d="M27.32,190.87c7.29-7.36,19.38-25.18,19.38-25.18s14.88,2.61,24.73-12.95S63,117.29,45.29,126.54s-23.81,48.15-24.4,57.11S23,195.24,27.32,190.87Z"/></g></g></svg>