<svg xmlns="http://www.w3.org/2000/svg" viewBox="0 0 289.09 199.95"><defs><style>.cls-1{fill:#fff;}</style></defs><g id="圖層_2" data-name="圖層 2"><g id="OBJECTS"><path class="cls-1" d="M280.58,29.51c-12.85.07-49.74,5.44-49.74,5.44,4.71-3.8,7.94-12.69,8.77-18.49a10.62,10.62,0,0,0-.05-4.64,2.82,2.82,0,0,0-1-1.11l0,0q-.25-.19-.57-.39l-.12-.08c-.18-.11-.36-.23-.57-.34L237,9.72l-.51-.27L236,9.21,235.63,9l-.69-.33-.16-.07h0C226.21,4.69,208.29-.23,198.42,0c-5.59.13-11.57,4-16.57,8.29-17.6-2.15-54-5.34-76.59,1.56-30.64,9.37-58.51,32.3-58.51,32.3s71.49,4.46,94.38-.87l.78-.19c-1.09.55-2.23,1.09-3.42,1.64h0a185.2,185.2,0,0,1-26,9.48l-.43.14q-1.16.34-2.31.72l-.84.27c-.84.28-1.68.57-2.52.88l-.84.31c-.84.31-1.68.64-2.52,1l-.61.26-2.18.92-.69.3L97.12,58.1l-.78.38c-.79.38-1.59.77-2.37,1.17l-.66.35c-.7.36-1.39.73-2.08,1.1l-.53.29c-.78.43-1.55.86-2.32,1.31l-.71.41c-.75.43-1.49.88-2.22,1.32l-.68.43c-.68.41-1.35.84-2,1.26l-.6.39c-.65.42-1.29.85-1.93,1.28l-.67.45c-.68.46-1.34.93-2,1.39l-.71.51-1.93,1.4-.63.47c-.51.38-1,.76-1.52,1.15l-.68.51-1.75,1.38-.77.61c-.56.45-1.11.89-1.65,1.34l-.75.63-1.15,1L65,79.5l-1.1,1-.86.76L61.7,82.37l-.93.84-.61.57c-.54.49-1.06,1-1.57,1.47l-.4.38a177.6,177.6,0,0,0-14.45,15.45.12.12,0,0,0,0,0c-1.29,1.57-2,2.48-2,2.48A26.22,26.22,0,0,0,40,100.23C34.88,92.38,24.2,83.76,13.83,89.61c-.36.21-.73.43-1.08.67l-.06,0q-.48.31-1,.66l-.22.16-.77.59-.28.23-.7.59-.28.26c-.23.2-.46.42-.68.64l-.26.24-.75.78-.14.15c-.3.33-.59.66-.88,1l0,0c-.27.32-.54.65-.79,1-.08.09-.15.19-.22.28-.19.26-.38.51-.56.77L4.93,98c-.16.24-.33.49-.48.73s-.17.26-.25.39l-.45.76c-.08.12-.15.25-.22.37q-.24.42-.45.84l-.17.31c-.19.37-.36.73-.53,1.1l0,.07c-.17.39-.34.77-.5,1.17v0C-1.24,111.41-.85,120,6,125.29A24.35,24.35,0,0,0,31,128.23s-5.92,25.33-10.23,30S6.6,169.87,19.25,173.45s44.44,35.11,42.26,24.23-24-28.91-24-28.91c37.57-.44,59.78-41.18,59.78-41.18,4.92-.33,11.65-2.42,19.44-5.66l.07,0,1.14-.48C137.8,113,164.1,97.55,184.58,84.93c2.93-1.8,5.81-3.54,8.67-5.24,24.54.12,77.44-.52,84.24-8.06S259.13,60,233,58.74a221.54,221.54,0,0,1,33.51-11.93C294,39.57,293.44,29.44,280.58,29.51Z"/></g></g></svg>