<?xml version="1.0" encoding="utf-8"?>
<!-- Generator: Adobe Illustrator 26.0.1, SVG Export Plug-In . SVG Version: 6.00 Build 0)  -->
<svg version="1.1" id="圖層_1" xmlns="http://www.w3.org/2000/svg" xmlns:xlink="http://www.w3.org/1999/xlink" x="0px" y="0px"
	 viewBox="0 0 764 499.9" style="enable-background:new 0 0 764 499.9;" xml:space="preserve">
<style type="text/css">
	.st0{fill:#FFFFFF;}
</style>
<path class="st0" d="M63.1,461c-2.9,0-11.1,1.2-11.1,1.2c1-0.8,1.8-2.8,2-4.1c0.1-0.5,0.1-0.8,0-1c0-0.1-0.1-0.2-0.2-0.2
	c0,0,0,0,0,0c0,0-0.1-0.1-0.1-0.1c0,0,0,0,0,0c0,0-0.1,0-0.1-0.1c0,0,0,0-0.1,0c0,0-0.1,0-0.1-0.1c0,0-0.1,0-0.1-0.1
	c0,0-0.1,0-0.1,0c0,0-0.1,0-0.2-0.1c0,0,0,0,0,0c0,0,0,0,0,0c-1.9-0.9-5.9-2-8.1-1.9c-1.2,0-2.6,0.9-3.7,1.8c-3.9-0.5-12-1.2-17,0.3
	c-6.8,2.1-13,7.2-13,7.2s15.9,1,21-0.2c0.1,0,0.1,0,0.2,0c-0.2,0.1-0.5,0.2-0.8,0.4l0,0c-1.5,0.7-3.4,1.4-5.8,2.1c0,0-0.1,0-0.1,0
	c-0.2,0.1-0.3,0.1-0.5,0.2c-0.1,0-0.1,0-0.2,0.1c-0.2,0.1-0.4,0.1-0.6,0.2c-0.1,0-0.1,0-0.2,0.1c-0.2,0.1-0.4,0.1-0.6,0.2
	c0,0-0.1,0-0.1,0.1c-0.2,0.1-0.3,0.1-0.5,0.2c-0.1,0-0.1,0-0.2,0.1c-0.2,0.1-0.4,0.2-0.5,0.2c-0.1,0-0.1,0.1-0.2,0.1
	c-0.2,0.1-0.4,0.2-0.5,0.3c0,0-0.1,0.1-0.1,0.1c-0.2,0.1-0.3,0.2-0.5,0.2c0,0-0.1,0-0.1,0.1c-0.2,0.1-0.3,0.2-0.5,0.3
	c-0.1,0-0.1,0.1-0.2,0.1c-0.2,0.1-0.3,0.2-0.5,0.3c-0.1,0-0.1,0.1-0.2,0.1c-0.2,0.1-0.3,0.2-0.4,0.3c0,0-0.1,0.1-0.1,0.1
	c-0.1,0.1-0.3,0.2-0.4,0.3c0,0-0.1,0.1-0.1,0.1c-0.2,0.1-0.3,0.2-0.4,0.3c-0.1,0-0.1,0.1-0.2,0.1c-0.1,0.1-0.3,0.2-0.4,0.3
	c0,0-0.1,0.1-0.1,0.1c-0.1,0.1-0.2,0.2-0.3,0.3c-0.1,0-0.1,0.1-0.2,0.1c-0.1,0.1-0.3,0.2-0.4,0.3c-0.1,0-0.1,0.1-0.2,0.1
	c-0.1,0.1-0.2,0.2-0.4,0.3c-0.1,0-0.1,0.1-0.2,0.1c-0.1,0.1-0.2,0.1-0.3,0.2c-0.1,0.1-0.2,0.1-0.2,0.2c-0.1,0.1-0.2,0.1-0.2,0.2
	c-0.1,0.1-0.1,0.1-0.2,0.2c-0.1,0.1-0.2,0.2-0.3,0.3c-0.1,0.1-0.1,0.1-0.2,0.2c0,0-0.1,0.1-0.1,0.1c-0.1,0.1-0.2,0.2-0.3,0.3
	c0,0-0.1,0.1-0.1,0.1c-1.5,1.5-2.7,2.8-3.2,3.4c0,0,0,0,0,0c-0.3,0.3-0.4,0.6-0.4,0.6c-0.1-0.2-0.2-0.5-0.4-0.7
	c-1.1-1.7-3.5-3.7-5.8-2.4c-0.1,0-0.2,0.1-0.2,0.1c0,0,0,0,0,0c-0.1,0-0.1,0.1-0.2,0.1c0,0,0,0,0,0c-0.1,0-0.1,0.1-0.2,0.1
	c0,0,0,0-0.1,0c-0.1,0-0.1,0.1-0.2,0.1c0,0,0,0-0.1,0.1c-0.1,0-0.1,0.1-0.2,0.1c0,0,0,0-0.1,0.1c-0.1,0.1-0.1,0.1-0.2,0.2
	c0,0,0,0,0,0c-0.1,0.1-0.1,0.1-0.2,0.2c0,0,0,0,0,0c-0.1,0.1-0.1,0.1-0.2,0.2c0,0,0,0,0,0.1c0,0.1-0.1,0.1-0.1,0.2
	c0,0,0,0.1-0.1,0.1c0,0.1-0.1,0.1-0.1,0.2c0,0,0,0.1-0.1,0.1c0,0.1-0.1,0.1-0.1,0.2c0,0,0,0.1,0,0.1c0,0.1-0.1,0.1-0.1,0.2
	c0,0,0,0,0,0.1c0,0.1-0.1,0.2-0.1,0.2c0,0,0,0,0,0c0,0.1-0.1,0.2-0.1,0.3c0,0,0,0,0,0c-0.7,1.7-0.6,3.6,0.9,4.8
	c2.7,2.1,5.5,0.7,5.5,0.7s-1.3,5.6-2.3,6.7c-1,1-3.1,2.6-0.3,3.4s9.9,7.8,9.4,5.4C13.9,496,9,492,9,492c8.4-0.1,13.3-9.2,13.3-9.2
	c1.1-0.1,2.6-0.5,4.3-1.3c0,0,0,0,0,0c0.1,0,0.2-0.1,0.3-0.1c4.4-1.9,10.3-5.3,14.8-8.1c0.7-0.4,1.3-0.8,1.9-1.2
	c5.5,0,17.2-0.1,18.7-1.8c1.5-1.7-4.1-2.6-9.9-2.9c2.5-1.1,4.9-2,7.5-2.7C66.1,463.3,66,461,63.1,461z"/>
</svg>
