<?xml version="1.0" encoding="utf-8"?>
<!-- Generator: Adobe Illustrator 26.0.1, SVG Export Plug-In . SVG Version: 6.00 Build 0)  -->
<svg version="1.1" id="圖層_1" xmlns="http://www.w3.org/2000/svg" xmlns:xlink="http://www.w3.org/1999/xlink" x="0px" y="0px"
	 viewBox="0 0 644 440.1" style="enable-background:new 0 0 644 440.1;" xml:space="preserve">
<style type="text/css">
	.st0{fill:#FFFFFF;}
</style>
<path class="st0" d="M277.2,212c0.5-1.1,1-2.2,1.4-3.5c0.9-0.1,1.3-0.3,1.3-0.7c0-0.4-0.9-0.8-3.4-1.4c-0.1,0.7-0.3,1.5-0.5,2.2
	c-1,4-3.2,8.3-5.6,11.4c-0.1,0.2,0.2,0.5,0.4,0.3c2.5-2.2,4.4-4.6,5.9-7.6h1.3v12.9c0,4.8-0.2,6.8-0.2,7.4c0,0.7,0.3,0.9,1,0.9
	c1,0,1.4-0.3,1.4-1.1c0-1.1-0.1-4-0.1-7.9h8.6c0.3,0,0.4-0.1,0.4-0.3c0-0.2-0.2-0.4-0.7-0.8c-1.2-1-1.4-1.1-1.6-1.1
	c-0.2,0-0.4,0.1-1.6,1.5h-5.1v-5.6h8.5c0.3,0,0.4-0.1,0.4-0.3c0-0.2-0.2-0.4-0.7-0.9c-1.2-1-1.4-1.1-1.6-1.1c-0.2,0-0.4,0.1-1.6,1.5
	h-5v-5.1h9.5c0.3,0,0.4-0.1,0.4-0.3c0-0.2-0.1-0.4-0.8-0.9c-1.4-1.1-1.6-1.2-1.8-1.2c-0.2,0-0.4,0.1-1.7,1.7H277.2z M269,217.2
	c0.8-0.3,0.9-0.5,0.9-0.7c0-0.3-0.3-0.4-1.8-0.7c1.5-2.1,2.7-4.5,3.7-7.3c0.8-0.1,1.1-0.3,1.1-0.6c0-0.4-1.1-0.8-3.3-1.5
	c-0.1,0.9-0.3,1.9-0.6,2.9c-1.1,3.9-3.7,8.6-6.4,11.6c-0.1,0.2,0.2,0.4,0.4,0.3c1.5-1.2,2.8-2.5,3.9-3.8c0,1.9,0,3.9,0,5.9
	c-0.1,7-0.2,9.2-0.2,9.8c0,0.6,0.4,0.9,1,0.9c0.8,0,1.3-0.4,1.3-1.1V217.2z M337.4,231.3c0.1-0.1,0.2-0.2,0.1-0.3
	c-3.4-1.9-5.5-4-7-6.8c-1.6-2.9-2.5-5.9-2.6-10.7c0.1-1.4,0.1-3,0.1-4.9c0.8-0.3,0.9-0.5,0.9-0.8c0-0.4-0.3-0.5-3.4-0.9
	c0.1,0.9,0.1,1.3,0.1,2.6c0,8.6-0.6,12.4-2.1,15.8c-1.4,3.3-3.2,5.6-6.6,8.1c-0.1,0.1,0.1,0.5,0.2,0.4c3.9-2,6.3-4.1,8-7.5
	c1.1-2.1,2-4.8,2.2-8.9c0.3,3,0.9,5.3,1.5,7.2c1.2,3.3,3.2,6.3,5.6,8.5c0.4,0.4,0.6,0.5,0.8,0.5c0.2,0,0.3-0.1,0.5-0.5
	C336.3,231.9,336.5,231.7,337.4,231.3z M316,217.2c0.8-0.3,0.9-0.5,0.9-0.7c0-0.3-0.3-0.4-1.8-0.7c1.3-2.1,2.4-4.4,3.4-7.1
	c0.8-0.2,1.1-0.3,1.1-0.7s-1.1-0.8-3.4-1.4c-0.2,1.2-0.5,2.6-1,4.1c-1.2,3.8-3.3,8.1-5.6,10.9c-0.1,0.1,0.2,0.4,0.3,0.3
	c1.5-1.3,2.7-2.7,3.9-4.2c0,1.9,0,4,0,5.9c0,5.3-0.1,8.8-0.1,9.4c0,0.7,0.4,0.9,1,0.9c0.9,0,1.3-0.3,1.3-1.1c0-1.1,0-4.6,0-11.6
	V217.2z M335,215.1c1.1-0.1,1.2-0.2,1.2-0.6s-0.8-0.8-2.9-1.9c-0.2,0.9-0.5,1.8-0.9,2.7c-0.7,1.7-1.7,3.4-2.9,5.1
	c-0.1,0.1,0.2,0.4,0.3,0.3C331.8,219.3,333.6,217.2,335,215.1z M322.2,215.8c0-0.8-0.1-1.7-0.2-2.6c0-0.2-0.4-0.2-0.4,0
	c-0.2,2.2-0.9,3.8-2.2,4.9c-0.8,0.6-0.9,0.8-0.9,1.4c0,0.7,0.5,1.2,1.3,1.2C321.2,220.8,322.3,219.1,322.2,215.8z M375.9,218.1
	c1.4,1,2.3,2.2,3.1,3.7c0.5,1.1,0.8,1.3,1.4,1.3c0.6,0,1-0.5,1-1.2c0-1.5-2-3.1-5.2-4.2c0.5-0.8,1-1.6,1.4-2.5
	c0.9-0.1,1.2-0.3,1.2-0.7s-0.5-0.6-3.1-1.4c-0.1,0.8-0.3,1.7-0.7,2.7c-0.7,2.1-2,4.4-3.5,6.1c-0.1,0.1,0.1,0.4,0.3,0.3
	C373.5,221,374.8,219.7,375.9,218.1z M362.4,218.1c1,0.8,1.8,1.6,2.3,2.7c0.4,0.9,0.6,1.2,1,1.2c0.6,0,1-0.5,1-1.3
	c0-1.1-1.4-2.3-4.1-3.1c0.4-0.8,0.8-1.5,1.2-2.4c0.9-0.1,1.2-0.3,1.2-0.7c0-0.4-0.8-0.8-3.1-1.4c-0.1,0.8-0.3,1.8-0.6,2.8
	c-0.9,2.6-2.5,5.3-4.4,7.3c-0.1,0.1,0.1,0.4,0.3,0.3C359.3,222.2,361.1,220.4,362.4,218.1z M370.5,212.3h12.3c0.3,0,0.4-0.1,0.4-0.3
	c0-0.2-0.1-0.4-0.8-0.9c-1.5-1.1-1.7-1.3-1.9-1.3c-0.2,0-0.4,0.1-1.8,1.7h-8.3v-3.4c0.8-0.4,1-0.6,1-0.8c0-0.4-0.6-0.6-3.3-0.9
	c0.1,1.1,0.1,1.7,0.1,3.8v1.3H359c-0.8,0-1.5,0-2.5-0.2l0.3,1.1c0.9-0.1,1.4-0.2,2.2-0.2h9.4v8c-3.1,5.5-7.2,9.2-12.5,12
	c-0.1,0.1,0,0.4,0.1,0.3c5.1-1.9,9-4.4,12.4-8.8c-0.1,5.5-0.2,8.3-0.2,9.4c0,0.7,0.4,0.9,1.1,0.9c0.9,0,1.4-0.4,1.4-1
	c0-1.3-0.1-4.2-0.2-11.1c1.3,2.6,2.6,4.3,4.3,6c1.7,1.7,3.7,3,5.8,4.1c0.5,0.3,0.9,0.4,1.1,0.4c0.2,0,0.4-0.1,0.5-0.4
	c0.5-1.1,0.8-1.3,1.6-1.6c0.1,0,0.2-0.2,0-0.3c-3.2-0.9-6-2-8.3-3.8c-1.9-1.4-3.5-3.1-4.9-5.4V212.3z M426.4,211.8
	c-0.3,1.3-0.6,2.1-1,2.8c-0.1,0.1,0.2,0.3,0.3,0.2c0.9-0.5,1.5-1,2.3-1.8c0.3-0.3,0.4-0.4,0.8-0.4c0.8-0.1,1.1-0.1,1.1-0.6
	c0-0.2-0.1-0.4-0.7-0.9c-1.3-1.1-1.5-1.3-1.7-1.3c-0.2,0-0.4,0.1-1.4,1.2H421c1.2-0.7,1.9-1.3,2.9-2.3c1,0,1.3-0.2,1.3-0.4
	c0-0.4-0.8-0.9-2.8-1.6c-0.2,0.7-0.5,1.3-0.8,1.9c-0.4,0.7-0.9,1.5-1.6,2.4h-2.9v-3.2c0.8-0.3,1-0.5,1-0.8c0-0.3-0.4-0.6-3.2-0.8
	c0.1,1,0.1,1.6,0.1,2.4v2.4h-8.6c0-0.4-0.1-0.8-0.2-1.2c0-0.1-0.3-0.1-0.3,0c-0.2,1.7-0.7,2.5-2.2,3.3c-0.6,0.3-0.9,0.6-0.9,1.2
	c0,0.7,0.5,1.2,1.2,1.2c1.3,0,2.4-1.5,2.5-3.7H426.4z M421.1,217.8c0,0.6,0.2,0.8,0.9,0.8c0.8,0,1.2-0.3,1.2-0.9c0-0.2,0-0.6,0-2.1
	v-0.5c0.6-0.4,0.8-0.6,0.8-0.8c0-0.2-0.1-0.4-0.6-0.8c-0.9-0.8-1.1-0.9-1.3-0.9c-0.2,0-0.4,0.1-1.2,1.1h-9.3
	c-0.7-0.4-1.3-0.7-2.4-1.1c0.1,1.2,0.1,2.4,0.1,3.8c0,0.9,0,1.4,0,1.5c0,0.5,0.2,0.7,0.9,0.7c0.8,0,1.1-0.2,1.2-0.8H421.1z
	 M421.1,217.1h-9.8v-2.6h9.8V217.1z M423.1,229.2c0,0.6,0.2,0.8,0.9,0.8c0.8,0,1.3-0.3,1.3-1c0-0.5-0.1-2.2-0.1-5.8v-1.9
	c0.7-0.5,0.8-0.6,0.8-0.8c0-0.2-0.1-0.3-0.6-0.8c-1-0.7-1.2-0.8-1.4-0.8c-0.2,0-0.3,0.1-1.2,1h-13c-1-0.5-1.5-0.8-2.5-1.2
	c0.1,1.5,0.1,2.8,0.1,5c0,3.8-0.1,4.9-0.1,5.5c0,0.6,0.3,0.8,1,0.8c0.8,0,1.2-0.3,1.3-0.8H423.1z M423.1,222.7h-13.6v-2h13.6V222.7z
	 M409.5,223.4h13.6v2h-13.6V223.4z M409.5,226.2h13.6v2.3h-13.6V226.2z M410.8,211c0.8,0,1.1-0.5,1.1-1.3c0-1.2-1.2-2.2-3.5-2.9
	c-0.1,0-0.3,0.2-0.2,0.2c0.7,0.8,1.2,1.7,1.5,2.8C410,210.7,410.3,211,410.8,211z M426,234.4c0.6,0,1-0.3,1-1c0-1.6-3.2-2.8-8.5-3.2
	c-0.1,0-0.2,0.3-0.1,0.3c2.5,0.9,4.7,2.1,6,3.2C425.1,234.1,425.5,234.4,426,234.4z M403.8,234.2c4.3-0.4,6.5-1.1,9-2.3
	c1.3,0.1,1.5,0,1.5-0.3s-0.2-0.5-2.7-1.8c-0.3,0.4-0.9,0.9-1.7,1.4c-1.4,0.9-3.6,1.9-6.2,2.6C403.5,233.9,403.6,234.2,403.8,234.2z
	 M468.8,222.9v7.3c0,0.4-0.1,0.6-0.5,0.6c-0.8,0-2.1-0.1-4.1-0.2c-0.2,0-0.2,0.4,0,0.4c2.4,0.4,3.4,0.9,3.5,1.8
	c0.1,0.5,0.2,0.6,0.7,0.6c0.5,0,1.3-0.2,1.7-0.4c0.9-0.4,1.2-1.1,1.2-2.2c0-1.5-0.1-2.5-0.1-14.9v-6.1c0.7-0.5,0.8-0.6,0.8-0.8
	c0-0.2-0.1-0.4-0.6-0.8c-1.1-0.8-1.3-1-1.5-1c-0.2,0-0.3,0.1-1.3,1.1h-10.6c-1-0.6-1.5-0.9-2.7-1.4c0.2,1.7,0.2,3.2,0.2,7.8
	c0,4.9-0.3,8-0.8,10.6c-0.7,3.1-1.8,5.3-3.9,7.8c-0.1,0.2,0.2,0.4,0.4,0.3c3-2.2,4.8-5,5.6-8.2c0.2-0.8,0.4-1.6,0.5-2.5H468.8z
	 M468.8,216v6.2h-11.5c0.2-2,0.3-4.1,0.4-6.2H468.8z M468.8,215.2h-11.1v-6h11.1V215.2z"/>
</svg>
