<svg width="267" height="37" viewBox="0 0 267 37" fill="none" xmlns="http://www.w3.org/2000/svg">
<path d="M19.618 8.224C20.264 6.856 20.872 5.412 21.442 3.816C22.544 3.702 23.038 3.474 23.038 2.98C23.038 2.524 21.86 2.03 18.782 1.156C18.668 2.068 18.44 3.018 18.174 3.968C16.882 9.06 14.146 14.532 11.144 18.408C10.992 18.636 11.448 19.016 11.638 18.826C14.868 16.014 17.224 12.974 19.162 9.174H20.796V25.476C20.796 31.594 20.606 34.14 20.606 34.862C20.606 35.698 20.948 36.04 21.898 36.04C23.19 36.04 23.722 35.622 23.722 34.672C23.722 33.342 23.646 29.58 23.608 24.602H34.552C34.932 24.602 35.046 24.488 35.046 24.222C35.046 23.994 34.856 23.728 34.21 23.158C32.652 21.866 32.386 21.714 32.12 21.714C31.892 21.714 31.626 21.866 30.068 23.652H23.608V16.584H34.438C34.818 16.584 34.932 16.47 34.932 16.242C34.932 16.014 34.742 15.748 34.058 15.14C32.538 13.924 32.234 13.734 32.006 13.734C31.778 13.734 31.474 13.924 29.954 15.634H23.608V9.174H35.654C36.034 9.174 36.148 9.06 36.148 8.756C36.148 8.528 35.958 8.3 35.198 7.616C33.488 6.248 33.222 6.058 32.956 6.058C32.728 6.058 32.462 6.248 30.752 8.224H19.618ZM9.168 14.836C10.118 14.418 10.27 14.19 10.27 13.924C10.27 13.506 9.928 13.354 8.028 13.05C9.89 10.39 11.41 7.35 12.74 3.778C13.766 3.626 14.184 3.398 14.184 3.018C14.184 2.562 12.816 1.954 9.966 1.156C9.852 2.334 9.586 3.55 9.206 4.804C7.8 9.744 4.57 15.634 1.15 19.548C0.959997 19.738 1.416 20.118 1.606 19.966C3.468 18.408 5.102 16.812 6.508 15.102C6.508 17.572 6.47 20.08 6.47 22.588C6.394 31.48 6.28 34.216 6.28 35.014C6.28 35.812 6.774 36.116 7.572 36.116C8.636 36.116 9.168 35.66 9.168 34.786V14.836ZM95.808 32.658C95.998 32.582 96.074 32.392 95.884 32.278C91.552 29.884 88.93 27.262 86.992 23.652C85.016 19.966 83.876 16.166 83.648 10.162C83.724 8.414 83.762 6.4 83.762 3.93C84.75 3.55 84.94 3.284 84.94 2.904C84.94 2.372 84.598 2.22 80.684 1.764C80.836 2.904 80.836 3.398 80.836 4.994C80.836 15.9 80.076 20.688 78.214 25.058C76.39 29.276 74.11 32.164 69.892 35.28C69.702 35.394 69.968 35.85 70.196 35.736C75.098 33.228 78.176 30.492 80.38 26.198C81.824 23.5 82.85 20.08 83.23 14.912C83.61 18.674 84.332 21.676 85.168 24.032C86.65 28.212 89.158 32.05 92.312 34.824C92.806 35.28 93.11 35.432 93.338 35.432C93.642 35.432 93.756 35.318 93.984 34.748C94.478 33.456 94.706 33.228 95.808 32.658ZM68.752 14.836C69.702 14.418 69.892 14.19 69.892 13.924C69.892 13.544 69.55 13.354 67.612 13.012C69.284 10.39 70.652 7.464 71.944 4.044C72.97 3.854 73.35 3.626 73.35 3.208C73.35 2.79 71.944 2.182 69.056 1.422C68.828 2.98 68.41 4.728 67.84 6.552C66.358 11.416 63.66 16.85 60.734 20.308C60.582 20.46 61 20.84 61.152 20.688C63.014 19.054 64.61 17.268 66.054 15.33C66.016 17.686 66.016 20.384 66.016 22.816C66.016 29.542 65.826 33.95 65.826 34.748C65.826 35.66 66.282 35.926 67.118 35.926C68.22 35.926 68.79 35.508 68.79 34.558C68.79 33.19 68.752 28.782 68.752 19.89V14.836ZM92.844 12.214C94.288 12.1 94.364 11.948 94.364 11.454C94.364 10.96 93.3 10.39 90.678 9.06C90.412 10.238 89.994 11.302 89.5 12.442C88.588 14.608 87.334 16.812 85.89 18.94C85.776 19.13 86.118 19.51 86.308 19.358C88.778 17.534 91.058 14.874 92.844 12.214ZM76.656 13.088C76.656 12.1 76.58 10.998 76.428 9.858C76.39 9.63 75.934 9.63 75.896 9.858C75.668 12.67 74.718 14.722 73.084 16.014C72.134 16.736 71.906 17.078 71.906 17.838C71.906 18.75 72.552 19.396 73.54 19.396C75.364 19.396 76.694 17.268 76.656 13.088ZM144.638 16.014C146.348 17.306 147.564 18.788 148.514 20.688C149.122 22.056 149.54 22.36 150.224 22.36C150.984 22.36 151.554 21.714 151.554 20.802C151.554 18.94 149.046 16.926 145.018 15.444C145.664 14.494 146.234 13.468 146.766 12.328C147.868 12.176 148.286 11.91 148.286 11.454C148.286 10.998 147.602 10.694 144.41 9.706C144.296 10.732 143.992 11.872 143.574 13.126C142.662 15.748 141.066 18.674 139.204 20.84C139.052 21.03 139.394 21.334 139.584 21.182C141.56 19.7 143.232 18.028 144.638 16.014ZM127.576 16.014C128.906 17.002 129.818 18.104 130.464 19.434C130.996 20.574 131.186 20.916 131.794 20.916C132.516 20.916 133.086 20.232 133.086 19.282C133.086 17.838 131.376 16.356 127.956 15.406C128.488 14.456 128.982 13.468 129.438 12.404C130.54 12.214 130.92 12.024 130.92 11.568C130.92 11.074 129.97 10.618 127.044 9.744C126.968 10.694 126.664 11.986 126.246 13.278C125.106 16.584 123.054 20.004 120.66 22.512C120.508 22.664 120.85 23.006 121.04 22.892C123.624 21.22 125.828 18.864 127.576 16.014ZM137.836 8.604H153.454C153.834 8.604 153.986 8.49 153.986 8.262C153.986 8.034 153.796 7.806 152.998 7.122C151.136 5.678 150.87 5.488 150.604 5.488C150.376 5.488 150.11 5.678 148.362 7.654H137.836V3.284C138.862 2.828 139.09 2.562 139.09 2.258C139.09 1.764 138.368 1.536 134.91 1.156C135.024 2.486 135.1 3.246 135.1 6.02V7.654H123.168C122.104 7.654 121.306 7.616 120.052 7.388L120.47 8.832C121.572 8.68 122.256 8.604 123.206 8.604H135.1V18.712C131.11 25.628 125.942 30.34 119.33 33.912C119.178 33.988 119.33 34.406 119.52 34.33C125.98 31.936 130.882 28.782 135.176 23.234C135.024 30.226 134.872 33.722 134.872 35.204C134.872 36.04 135.328 36.382 136.278 36.382C137.418 36.382 137.988 35.926 137.988 35.09C137.988 33.494 137.912 29.732 137.722 21.068C139.432 24.336 141.066 26.54 143.118 28.63C145.284 30.72 147.792 32.43 150.452 33.76C151.098 34.102 151.592 34.292 151.82 34.292C152.124 34.292 152.314 34.14 152.466 33.76C153.036 32.354 153.416 32.05 154.556 31.746C154.708 31.708 154.746 31.442 154.594 31.404C150.528 30.302 147.032 28.82 144.068 26.578C141.636 24.754 139.622 22.626 137.836 19.776V8.604ZM208.592 7.996C208.212 9.668 207.832 10.618 207.376 11.53C207.3 11.682 207.604 11.872 207.756 11.758C208.896 11.074 209.618 10.504 210.644 9.516C211.024 9.098 211.176 9.022 211.708 9.022C212.772 8.946 213.076 8.832 213.076 8.262C213.076 8.034 212.962 7.768 212.202 7.122C210.606 5.716 210.302 5.526 210.036 5.526C209.808 5.526 209.58 5.678 208.326 7.046H201.79C203.272 6.134 204.222 5.374 205.514 4.158C206.844 4.12 207.148 3.968 207.148 3.588C207.148 3.094 206.084 2.486 203.652 1.536C203.386 2.372 203.044 3.17 202.588 4.006C202.056 4.918 201.41 5.944 200.612 7.046H196.926V2.942C197.914 2.562 198.218 2.296 198.218 1.954C198.218 1.574 197.762 1.232 194.152 0.889999C194.304 2.106 194.304 2.904 194.304 3.968V7.046H183.36C183.322 6.552 183.246 6.02 183.132 5.488C183.094 5.336 182.714 5.336 182.714 5.488C182.448 7.692 181.802 8.718 179.902 9.706C179.104 10.124 178.8 10.504 178.8 11.188C178.8 12.062 179.408 12.708 180.282 12.708C181.878 12.708 183.36 10.846 183.398 7.996H208.592ZM201.904 15.634C201.904 16.356 202.208 16.584 203.044 16.584C204.07 16.584 204.564 16.204 204.564 15.482C204.564 15.292 204.526 14.684 204.526 12.784V12.138C205.324 11.644 205.514 11.416 205.514 11.15C205.514 10.922 205.362 10.656 204.792 10.2C203.614 9.25 203.386 9.098 203.158 9.098C202.892 9.098 202.702 9.25 201.638 10.428H189.82C188.946 9.934 188.148 9.554 186.818 9.022C186.894 10.58 186.932 12.024 186.932 13.81C186.932 14.988 186.894 15.558 186.894 15.71C186.894 16.318 187.198 16.622 187.996 16.622C188.946 16.622 189.44 16.318 189.516 15.634H201.904ZM201.904 14.684H189.516V11.378H201.904V14.684ZM204.374 30.074C204.374 30.834 204.64 31.1 205.552 31.1C206.578 31.1 207.148 30.682 207.148 29.846C207.148 29.2 206.996 27.034 206.996 22.474V20.042C207.908 19.434 208.06 19.244 208.06 18.978C208.06 18.75 207.946 18.56 207.3 18.028C206.084 17.116 205.818 16.964 205.552 16.964C205.324 16.964 205.134 17.116 204.07 18.218H187.616C186.286 17.534 185.754 17.268 184.386 16.736C184.5 18.674 184.576 20.232 184.576 23.12C184.576 27.87 184.386 29.352 184.386 30.112C184.386 30.872 184.728 31.138 185.602 31.138C186.552 31.138 187.16 30.796 187.198 30.074H204.374ZM204.374 21.752H187.198V19.168H204.374V21.752ZM187.198 22.702H204.374V25.286H187.198V22.702ZM187.198 26.236H204.374V29.124H187.198V26.236ZM188.832 6.97C189.782 6.97 190.238 6.324 190.238 5.298C190.238 3.816 188.756 2.486 185.83 1.612C185.678 1.574 185.488 1.802 185.602 1.916C186.476 2.866 187.122 4.044 187.502 5.488C187.882 6.666 188.148 6.97 188.832 6.97ZM208.06 36.572C208.782 36.572 209.352 36.192 209.352 35.356C209.352 33.304 205.324 31.784 198.636 31.29C198.484 31.29 198.408 31.632 198.56 31.67C201.714 32.848 204.488 34.292 206.198 35.698C206.92 36.306 207.49 36.572 208.06 36.572ZM179.94 36.382C185.374 35.926 188.186 35.014 191.302 33.494C192.898 33.608 193.24 33.494 193.24 33.114C193.24 32.734 192.936 32.506 189.858 30.872C189.44 31.404 188.718 32.05 187.692 32.62C185.906 33.76 183.17 35.014 179.826 35.888C179.598 35.964 179.712 36.42 179.94 36.382ZM262.248 22.094V31.404C262.248 31.974 262.096 32.202 261.564 32.202C260.5 32.202 258.866 32.126 256.32 31.936C256.092 31.936 256.092 32.43 256.32 32.468C259.322 32.962 260.576 33.646 260.728 34.748C260.842 35.394 260.956 35.546 261.564 35.546C262.21 35.546 263.198 35.318 263.768 34.976C264.87 34.406 265.25 33.646 265.25 32.164C265.25 30.302 265.136 29.048 265.136 13.278V5.602C266.048 4.956 266.162 4.804 266.162 4.538C266.162 4.272 266.01 4.082 265.44 3.588C264.034 2.524 263.806 2.372 263.54 2.372C263.312 2.372 263.122 2.524 261.944 3.816H248.53C247.238 3.018 246.63 2.714 245.072 2.068C245.3 4.234 245.338 6.096 245.338 11.986C245.338 18.218 244.996 22.132 244.274 25.362C243.438 29.238 242.032 32.126 239.334 35.28C239.144 35.47 239.562 35.812 239.79 35.66C243.59 32.848 245.832 29.314 246.896 25.21C247.162 24.222 247.39 23.234 247.542 22.094H262.248ZM262.248 13.316V21.144H247.694C247.998 18.56 248.112 15.938 248.15 13.316H262.248ZM262.248 12.366H248.188V4.766H262.248V12.366Z" fill="white"/>
</svg>
