<?xml version="1.0" encoding="utf-8"?>
<!-- Generator: Adobe Illustrator 26.0.1, SVG Export Plug-In . SVG Version: 6.00 Build 0)  -->
<svg version="1.1" id="圖層_1" xmlns="http://www.w3.org/2000/svg" xmlns:xlink="http://www.w3.org/1999/xlink" x="0px" y="0px"
	 viewBox="0 0 193.2 53" style="enable-background:new 0 0 193.2 53;" xml:space="preserve">
<style type="text/css">
	.st0{fill:#FFFFFF;}
</style>
<polygon class="st0" points="139.9,35.6 138.5,35.6 138.5,39.4 138.5,39.4 138.5,40 138.5,40 138.5,40 139.9,40 139.9,40 142.6,40 
	142.6,39.4 139.9,39.4 "/>
<polygon class="st0" points="76.4,37.4 74.1,37.4 74.1,35.6 72.9,35.6 72.9,40 74.1,40 74.1,38 76.4,38 76.4,40 77.6,40 77.6,35.6 
	76.4,35.6 "/>
<polygon class="st0" points="123.5,37.4 121.3,37.4 121.3,35.6 120,35.6 120,40 121.3,40 121.3,38 123.5,38 123.5,40 124.8,40 
	124.8,35.6 123.5,35.6 "/>
<polygon class="st0" points="81.2,37.5 79.8,35.7 78.4,35.7 80.2,38.1 80.2,40 81.5,40 81.5,38 83,35.7 83.1,35.7 82.4,35.7 "/>
<polygon class="st0" points="158,37.5 156.6,35.7 155.2,35.7 157,38.1 157,40 158.4,40 158.4,38 159.9,35.7 159.9,35.7 159.2,35.7 
	"/>
<polygon class="st0" points="88.6,38.4 87.7,35.7 87.4,35.7 87.4,35.6 86.8,35.6 86.1,38.4 85.1,35.7 83.8,35.7 85.3,40 85.6,40 
	85.6,40 86.3,40 87,37.3 87.9,40 87.9,40 87.9,40 88.6,40 88.6,40 88.6,40 88.6,39.9 90.4,35.7 90.4,35.6 89.7,35.6 "/>
<polygon class="st0" points="92.5,35.7 91.5,35.7 91.5,40.1 92.8,40.1 92.8,40.1 95.2,40.1 95.2,39.5 92.8,39.5 92.8,38.1 
	95.1,38.1 95.1,37.5 92.8,37.5 92.8,36.3 95.2,36.3 95.2,35.7 92.5,35.7 "/>
<polygon class="st0" points="103.2,36.2 104.8,36.2 104.8,40 106.2,40 106.2,36.2 107.9,36.2 107.9,35.6 103.2,35.6 "/>
<polygon class="st0" points="182.6,36.2 184.2,36.2 184.2,40 185.6,40 185.6,36.2 187.3,36.2 187.3,35.6 182.6,35.6 "/>
<polygon class="st0" points="129.9,38.5 127.1,35.7 127.1,35.7 126.3,35.7 126.3,40 127.1,40 127.1,37.1 129.9,40 129.9,40 
	130.6,40 130.6,35.7 129.9,35.7 "/>
<polygon class="st0" points="179.7,35.6 178.3,35.6 178.3,39.4 178.3,39.4 178.3,40 178.3,40 178.3,40 179.7,40 179.7,40 182.4,40 
	182.4,39.4 179.7,39.4 "/>
<polygon class="st0" points="110.1,35.7 109.1,35.7 109.1,40.1 110.5,40.1 110.5,40.1 112.8,40.1 112.8,39.5 110.5,39.5 110.5,38.1 
	112.8,38.1 112.8,37.5 110.5,37.5 110.5,36.3 112.8,36.3 112.8,35.7 110.1,35.7 "/>
<path class="st0" d="M134.6,35.6c-1.5,0-2.7,1-2.7,2.2c0,1.2,1.2,2.2,2.7,2.2c1.5,0,2.7-1,2.7-2.2C137.3,36.6,136.1,35.6,134.6,35.6
	z M136.1,37.8c0,0.9-0.7,1.7-1.5,1.7c-0.8,0-1.5-0.7-1.5-1.7c0-0.9,0.7-1.7,1.5-1.7C135.4,36.1,136.1,36.9,136.1,37.8z"/>
<path class="st0" d="M170.4,35.6c-1.5,0-2.7,1-2.7,2.2c0,1.2,1.2,2.2,2.7,2.2c1.5,0,2.7-1,2.7-2.2C173.1,36.6,171.9,35.6,170.4,35.6
	z M171.9,37.8c0,0.9-0.7,1.7-1.5,1.7c-0.8,0-1.5-0.7-1.5-1.7c0-0.9,0.7-1.7,1.5-1.7C171.2,36.1,171.9,36.9,171.9,37.8z"/>
<path class="st0" d="M145.8,35.6c-1.5,0-2.7,1-2.7,2.2c0,1.2,1.2,2.2,2.7,2.2c1.5,0,2.7-1,2.7-2.2C148.6,36.6,147.4,35.6,145.8,35.6
	z M147.3,37.8c0,0.9-0.7,1.7-1.5,1.7c-0.8,0-1.5-0.7-1.5-1.7c0-0.9,0.7-1.7,1.5-1.7C146.7,36.1,147.3,36.9,147.3,37.8z"/>
<path class="st0" d="M114,37.8c0,1.2,1.4,2.2,3.1,2.2c0.5,0,1-0.1,1.5-0.3v-1c-0.3,0.4-0.8,0.7-1.4,0.7c-1,0-1.8-0.7-1.8-1.6
	c0-0.9,0.8-1.6,1.8-1.6c0.6,0,1.1,0.3,1.4,0.7v-1c-0.4-0.2-1-0.3-1.5-0.3C115.4,35.6,114,36.6,114,37.8z"/>
<path class="st0" d="M162.1,37.8c0,1.2,1.4,2.2,3.1,2.2c0.5,0,1-0.1,1.5-0.3v-1c-0.3,0.4-0.8,0.7-1.4,0.7c-1,0-1.8-0.7-1.8-1.6
	c0-0.9,0.8-1.6,1.8-1.6c0.6,0,1.1,0.3,1.4,0.7v-1c-0.4-0.2-1-0.3-1.5-0.3C163.5,35.6,162.1,36.6,162.1,37.8z"/>
<path class="st0" d="M154.3,37.9h-0.8h-0.1v1.4c0,0,0.1,0,0.1-0.1c0.1,0,0.2-0.1,0.3-0.1c-0.1,0.1-0.2,0.1-0.4,0.2
	c-0.2,0.1-0.4,0.1-0.6,0.1c-1,0-1.8-0.7-1.8-1.6c0-0.9,0.8-1.6,1.8-1.6c0.7,0,1.3,0.4,1.6,0.9v-1.1c-0.5-0.2-1-0.3-1.6-0.3
	c-1.7,0-3.1,1-3.1,2.2c0,1.2,1.4,2.2,3.1,2.2c0.2,0,0.5,0,0.7-0.1c0.3-0.1,0.6-0.2,0.9-0.3c0.1,0,0.2-0.1,0.2-0.1v-1.6h-0.1H154.3z
	 M153.7,39.1c0.1,0,0.1-0.1,0.2-0.2C153.9,39,153.8,39.1,153.7,39.1z M154,38.9c0,0,0.1-0.1,0.1-0.1C154.1,38.8,154.1,38.8,154,38.9
	z"/>
<path class="st0" d="M99.7,37.7c0.5-0.2,0.9-0.5,0.9-0.9c0-0.7-0.8-1.1-1.8-1.1v0h-2v0v0.6v0.1v0.8v0.3V38v0.2v1.2c0,0,0,0,0,0V40v0
	h1.4v0h0.6v0c1.1,0,2-0.4,2-1.2C100.8,38.2,100.4,37.8,99.7,37.7z M99.3,36.8c0,0.3-0.2,0.5-0.6,0.6c-0.1,0-0.5,0-0.6,0v0v-1.1v0
	c0.2,0,0.5,0,0.6,0C99.1,36.3,99.3,36.5,99.3,36.8z M98.7,39.4c-0.1,0-0.4,0-0.6,0v0V38v0c0.1,0,0.5,0,0.6,0
	c0.4,0.1,0.7,0.3,0.7,0.7C99.5,39.1,99.1,39.3,98.7,39.4z"/>
<path class="st0" d="M190.6,35.7L190.6,35.7l-2.2,0v0h0v1.1V37v1.7v0.2V40h1.4v0h0.4h0.4c0,0,0.1,0,0.1,0c1.5,0,2.7-0.8,2.7-2.2
	C193.2,36.4,192.1,35.7,190.6,35.7z M190.6,39.4c-0.2,0.1-0.5,0.1-0.7,0.1c-0.1,0-0.1,0-0.2,0v-0.1v-3.1v-0.1c0.1,0,0.1,0,0.2,0
	c0.2,0,0.5,0,0.7,0.1c0.8,0.2,1.3,0.7,1.3,1.6C191.9,38.7,191.4,39.2,190.6,39.4z"/>
<path class="st0" d="M174.1,39.1c-0.1,0-0.2,0-0.3,0.1c-0.1,0.1-0.1,0.2-0.1,0.3c0,0.1,0,0.2,0.1,0.3c0.1,0.1,0.2,0.1,0.3,0.1
	c0.1,0,0.2,0,0.3-0.1c0.1-0.1,0.1-0.2,0.1-0.3c0-0.1,0-0.2-0.1-0.3C174.3,39.2,174.2,39.1,174.1,39.1z"/>
<path class="st0" d="M175.4,39.1c-0.1,0-0.2,0-0.3,0.1c-0.1,0.1-0.1,0.2-0.1,0.3c0,0.1,0,0.2,0.1,0.3c0.1,0.1,0.2,0.1,0.3,0.1
	c0,0.2-0.1,0.2-0.4,0.3l0.1,0.2c0.5-0.2,0.8-0.4,0.8-0.8c0-0.1,0-0.2-0.1-0.3C175.6,39.2,175.5,39.1,175.4,39.1z"/>
<polygon class="st0" points="149.6,17.6 149.1,17.6 144.2,17.6 144,17.6 141.2,26 138.2,17.6 138,17.6 138,17.6 133,17.6 133,17.6 
	132.7,17.6 129.6,26 126.9,17.6 126.7,17.6 121.7,17.6 121.2,17.6 121.2,17.7 126.3,31.1 126.6,31.1 132.2,31.1 132.3,31.1 
	135.4,23.1 138.5,31.1 138.6,31.1 144.2,31.1 144.5,31.1 149.6,17.7 "/>
<polygon class="st0" points="109,18.3 104,12.5 97.4,12.5 105.7,22.1 105.7,31.1 112.3,31.1 112.3,22.1 120.6,12.5 114,12.5 "/>
<polygon class="st0" points="88.9,17.6 79.3,17.6 79.3,12.5 72.6,12.5 72.6,31.1 79.3,31.1 79.3,22.1 88.9,22.1 88.9,31.1 
	95.5,31.1 95.5,12.5 88.9,12.5 "/>
<path class="st0" d="M184.6,17.7c-0.1,0-0.1,0-0.2,0c-1.5,0-2.9,0.4-4.2,0.9v-6.1h-6.6V31h6.4l0.3-0.9c0.4,0.1,0.8,0.2,1.1,0.4
	c0.6,0.2,1.3,0.3,1.9,0.4c0.4,0.1,0.9,0.1,1.3,0.1c4.8,0,8.6-2.3,8.6-6.7C193.2,20,189.4,17.7,184.6,17.7z M181.9,21
	c0.6-0.1,1.1-0.2,1.7-0.2c1.3,0,2.2,0.3,2.9,0.8c0.6,0.5,0.9,1.4,0.9,2.7c0,1.2-0.4,2.2-1.1,2.8c-0.8,0.6-1.9,0.9-3.5,0.9
	c-0.4,0-0.9,0-1.3-0.1c-0.4,0-0.9-0.1-1.3-0.2v-6.3C180.8,21.2,181.3,21.1,181.9,21z"/>
<path class="st0" d="M170.2,24.3c0-3.8-3.5-6.8-9-6.8c-0.2,0-0.5,0-0.7,0c-1.2,0-2.4,0.1-3.4,0.4c-4.1,0.9-6.5,3.4-6.5,6.4
	c0,2.5,2,4.6,4.9,5.8c1.1,0.4,2.2,0.7,3.5,0.9l0,0c0,0,2.6,0.5,7-0.1c0.5-0.1,1-0.1,1.5-0.2c0.8-0.1,1.2-0.2,1.6-0.3
	c0.3-0.1,0.6-0.1,0.9-0.2v-3.5h-0.1c0,0-0.1,0-0.1,0.1c-0.3,0.1-0.6,0.2-1,0.4c-0.5,0.2-0.8,0.3-1.3,0.5c-0.6,0.2-1.3,0.3-2,0.4
	c-0.7,0.1-1.5,0.2-2.3,0.2c-0.9,0-1.6-0.1-2.4-0.2c-0.8-0.1-1.4-0.3-2-0.5c-0.6-0.2-1-0.4-1.4-0.8c-0.3-0.4-0.5-0.9-0.6-1.4h13.4
	C170.2,24.9,170.2,24.6,170.2,24.3z M156.8,22.4c0.2-0.6,0.5-1.2,1.1-1.6c0.7-0.5,1.7-0.7,3-0.7c1.2,0,2.2,0.3,2.8,0.7
	c0.5,0.4,0.8,1,0.9,1.6H156.8z"/>
<path class="st0" d="M22.2,38.4C24.8,35.7,38.4,22,38.4,22c0.3-0.3,0.8-0.9,0.8-0.9c0.3-0.3,0.5-0.7,0.5-1.1c0-0.2,0.1-0.3,0.1-0.5
	c0-0.4-0.1-0.8-0.3-1.2c-0.2-0.4-0.6-0.8-1-1c-0.4-0.2-0.9-0.5-0.9-0.5c0,0-1.2-0.6-2.8-1.4L18.1,32.1c-0.9,0.9-2.1,1.4-3.5,1.4
	c-0.8,0-1.5-0.2-2.2-0.6l0,0c-0.3-0.1-0.8-0.4-1.7-0.8l-1.3-0.7c-0.1,0.1-0.2,0.2-0.2,0.2c-0.4,0.4-0.5,0.5-0.9,1
	c-0.4,0.5-0.6,1-0.6,1.6c0,0.9,0.5,1.7,1.2,2.1c0.5,0.3,0.7,0.4,1,0.6c0,0,7.4,3.7,11.2,5.6l0.5-0.5C21,41.1,20.8,39.8,22.2,38.4z"
	/>
<path class="st0" d="M57.2,26.6L57.2,26.6l-11.1-5.5c-0.5-0.3-1.1-0.4-1.7-0.4c-1,0-1.8,0.4-2.5,1L21.6,42.1l-0.5,0.5l-1.9,1.9
	C18.3,45.4,17,46,15.7,46c-0.8,0-1.6-0.2-2.3-0.6l3.3,1.6c0,0,11.1,5.6,11.1,5.6c0.5,0.3,1,0.4,1.6,0.4c1,0,1.9-0.4,2.5-1l22.7-22.7
	c0.5-0.6,1.2-1,2-1.3c1.3-0.4,2.6-0.3,3.8,0.3L57.2,26.6z"/>
<g>
	<path class="st0" d="M35.8,2.6l-4.4-2.2C30.9,0.1,30.4,0,29.8,0c-0.9,0-1.8,0.3-2.4,1L4.5,23.9c-0.3,0.3-0.6,0.5-0.9,0.7
		C3.3,24.7,3,24.9,2.8,25c-0.6,0.2-1.2,0.3-1.8,0.3c-0.2,0-0.3,0-0.5,0l0,0l0,0c-0.1,0-0.2,0-0.4-0.1l2,1l0.1,0.1l0.1,0l0.2,0.1
		l8.1,4.1l0.8,0.4l1.9,0.9l0,0c0.5,0.3,1,0.4,1.6,0.4c0.9,0,1.8-0.4,2.5-1l16.4-16.4l6.4-6.4c0.6-0.6,1.3-1,2.1-1.3
		c0.1,0,0.3-0.1,0.5-0.1c0,0,0.1,0,0.1,0l0,0c0.1,0,0.2,0,0.3-0.1c0.1,0,0.1,0,0.2,0c0.1,0,0.2,0,0.3,0l0,0c0,0,0.1,0,0.1,0l0,0
		c0,0,0,0,0,0c0,0,0.1,0,0.1,0c0,0,0,0,0.1,0c0.1,0,0.3,0,0.4,0c0.1,0,0.1,0,0.2,0c0.1,0,0.2,0,0.3,0l-2-1L35.8,2.6z"/>
</g>
</svg>
